<svg xmlns="http://www.w3.org/2000/svg" version="1.1" width="800" height="400"><polyline points="
90,230 185,190 280,339 375,338 470,333 565,334 660,340 755,338 850,335 945,-210 1040,230 1135,190 1230,318 1325,338 1420,333 1515,334 1610,340 1705,338 1800,335 1895,-212 " fill="none" stroke="black" marker-start="url(#dot)" marker-mid="url(#dot)" marker-end="url(#dot)" />
<line x1="850" y1="350" x2="30" y2="350" fill="none" shape-rendering="crispEdges" stroke="#ccc" stroke-dasharray="5,2" stroke-width="1"> </line>
<line x1="30" y1="20" x2="30" y2="350" fill="none" shape-rendering="crispEdges" stroke="#ccc" stroke-dasharray="5,2" stroke-width="1" marker-start="url(#arrow)" marker-end="url(#arrow)"/>
<text id="légende-abcisse " x="92" y="360" font-size="8" text-anchor="center">2001</text>
<text id="légende-abcisse " x="187" y="360" font-size="8" text-anchor="center">2003</text>
<text id="légende-abcisse " x="282" y="360" font-size="8" text-anchor="center">2007</text>
<text id="légende-abcisse " x="377" y="360" font-size="8" text-anchor="center">1991</text>
<text id="légende-abcisse " x="472" y="360" font-size="8" text-anchor="center">1992</text>
<text id="légende-abcisse " x="567" y="360" font-size="8" text-anchor="center">1993</text>
<text id="légende-abcisse " x="662" y="360" font-size="8" text-anchor="center">1994</text>
<text id="légende-abcisse " x="757" y="360" font-size="8" text-anchor="center">1995</text>
<text id="légende-abcisse " x="852" y="360" font-size="8" text-anchor="center">1996</text>
<text id="légende-abcisse " x="947" y="360" font-size="8" text-anchor="center">1997</text>
<text id="légende-abcisse " x="1042" y="360" font-size="8" text-anchor="center">2001</text>
<text id="légende-abcisse " x="1137" y="360" font-size="8" text-anchor="center">2003</text>
<text id="légende-abcisse " x="1232" y="360" font-size="8" text-anchor="center">2007</text>
<text id="légende-abcisse " x="1327" y="360" font-size="8" text-anchor="center">1991</text>
<text id="légende-abcisse " x="1422" y="360" font-size="8" text-anchor="center">1992</text>
<text id="légende-abcisse " x="1517" y="360" font-size="8" text-anchor="center">1993</text>
<text id="légende-abcisse " x="1612" y="360" font-size="8" text-anchor="center">1994</text>
<text id="légende-abcisse " x="1707" y="360" font-size="8" text-anchor="center">1995</text>
<text id="légende-abcisse " x="1802" y="360" font-size="8" text-anchor="center">1996</text>
<rect x="655" y="12" width="20" height="10" style="fill:rgb(200,50,100);stroke-width:1;stroke:rgb(0,0,0)">  </rect>
<text id="légende du graphique" x="680" y="20" font-size="12">pommes</text>
</svg>
