<svg xmlns="http://www.w3.org/2000/svg" version="1.1" width="800" height="400"><rect x="50" y="350" width="50" height="120.0" style="fill:rgb(200,50,100);stroke-width:1;stroke:rgb(0,0,0)" transform="translate(0,-120.0)" />
<rect x="105" y="350" width="50" height="160.0" style="fill:rgb(200,50,100);stroke-width:1;stroke:rgb(0,0,0)" transform="translate(0,-160.0)" />
<rect x="160" y="350" width="50" height="11.0" style="fill:rgb(200,50,100);stroke-width:1;stroke:rgb(0,0,0)" transform="translate(0,-11.0)" />
<rect x="215" y="350" width="50" height="12.0" style="fill:rgb(200,50,100);stroke-width:1;stroke:rgb(0,0,0)" transform="translate(0,-12.0)" />
<rect x="270" y="350" width="50" height="17.0" style="fill:rgb(200,50,100);stroke-width:1;stroke:rgb(0,0,0)" transform="translate(0,-17.0)" />
<rect x="325" y="350" width="50" height="16.0" style="fill:rgb(200,50,100);stroke-width:1;stroke:rgb(0,0,0)" transform="translate(0,-16.0)" />
<rect x="380" y="350" width="50" height="10.0" style="fill:rgb(200,50,100);stroke-width:1;stroke:rgb(0,0,0)" transform="translate(0,-10.0)" />
<rect x="435" y="350" width="50" height="12.0" style="fill:rgb(200,50,100);stroke-width:1;stroke:rgb(0,0,0)" transform="translate(0,-12.0)" />
<rect x="490" y="350" width="50" height="15.0" style="fill:rgb(200,50,100);stroke-width:1;stroke:rgb(0,0,0)" transform="translate(0,-15.0)" />
<rect x="545" y="350" width="50" height="560.0" style="fill:rgb(200,50,100);stroke-width:1;stroke:rgb(0,0,0)" transform="translate(0,-560.0)" />
<rect x="600" y="350" width="50" height="120.0" style="fill:rgb(200,50,100);stroke-width:1;stroke:rgb(0,0,0)" transform="translate(0,-120.0)" />
<rect x="655" y="350" width="50" height="160.0" style="fill:rgb(200,50,100);stroke-width:1;stroke:rgb(0,0,0)" transform="translate(0,-160.0)" />
<line x1="30" y1="20" x2="30" y2="350" fill="none" shape-rendering="crispEdges" stroke="#ccc" stroke-dasharray="5,2" stroke-width="1" marker-end="url(#arrow)"/>
<line x1="750" y1="350" x2="30" y2="350" fill="none" shape-rendering="crispEdges" stroke="#ccc" stroke-dasharray="5,2" stroke-width="1"> </line>
<text id="légende-abcisse " x="70" y="360" font-size="6" text-anchor="center">2001</text>
<text id="légende-abcisse " x="125" y="360" font-size="6" text-anchor="center">2003</text>
<text id="légende-abcisse " x="180" y="360" font-size="6" text-anchor="center">2007</text>
<text id="légende-abcisse " x="235" y="360" font-size="6" text-anchor="center">1991</text>
<text id="légende-abcisse " x="290" y="360" font-size="6" text-anchor="center">1992</text>
<text id="légende-abcisse " x="345" y="360" font-size="6" text-anchor="center">1993</text>
<text id="légende-abcisse " x="400" y="360" font-size="6" text-anchor="center">1994</text>
<text id="légende-abcisse " x="455" y="360" font-size="6" text-anchor="center">1995</text>
<text id="légende-abcisse " x="510" y="360" font-size="6" text-anchor="center">1996</text>
<text id="légende-abcisse " x="565" y="360" font-size="6" text-anchor="center">1997</text>
<text id="légende-abcisse " x="620" y="360" font-size="6" text-anchor="center">2001</text>
<text id="légende-abcisse " x="675" y="360" font-size="6" text-anchor="center">2003</text>
</svg>
