<svg xmlns="http://www.w3.org/2000/svg" version="1.1" width="0" height="400"><rect x="50" y="350" width="33" height="120" style="fill:none;stroke-width:1;stroke:rgb(0,0,0)" transform="translate(0,-120)" />
<rect x="105" y="350" width="33" height="160" style="fill:none;stroke-width:1;stroke:rgb(0,0,0)" transform="translate(0,-160)" />
<rect x="160" y="350" width="33" height="11" style="fill:none;stroke-width:1;stroke:rgb(0,0,0)" transform="translate(0,-11)" />
<rect x="215" y="350" width="33" height="12" style="fill:none;stroke-width:1;stroke:rgb(0,0,0)" transform="translate(0,-12)" />
<rect x="270" y="350" width="33" height="17" style="fill:none;stroke-width:1;stroke:rgb(0,0,0)" transform="translate(0,-17)" />
<rect x="325" y="350" width="33" height="16" style="fill:none;stroke-width:1;stroke:rgb(0,0,0)" transform="translate(0,-16)" />
<rect x="380" y="350" width="33" height="10" style="fill:none;stroke-width:1;stroke:rgb(0,0,0)" transform="translate(0,-10)" />
<rect x="435" y="350" width="33" height="12" style="fill:none;stroke-width:1;stroke:rgb(0,0,0)" transform="translate(0,-12)" />
<rect x="490" y="350" width="33" height="15" style="fill:none;stroke-width:1;stroke:rgb(0,0,0)" transform="translate(0,-15)" />
<rect x="545" y="350" width="33" height="560" style="fill:none;stroke-width:1;stroke:rgb(0,0,0)" transform="translate(0,-560)" />
<rect x="600" y="350" width="33" height="120" style="fill:none;stroke-width:1;stroke:rgb(0,0,0)" transform="translate(0,-120)" />
<rect x="655" y="350" width="33" height="160" style="fill:none;stroke-width:1;stroke:rgb(0,0,0)" transform="translate(0,-160)" />
<rect x="710" y="350" width="33" height="32" style="fill:none;stroke-width:1;stroke:rgb(0,0,0)" transform="translate(0,-32)" />
<rect x="765" y="350" width="33" height="12" style="fill:none;stroke-width:1;stroke:rgb(0,0,0)" transform="translate(0,-12)" />
<rect x="820" y="350" width="33" height="17" style="fill:none;stroke-width:1;stroke:rgb(0,0,0)" transform="translate(0,-17)" />
<rect x="875" y="350" width="33" height="16" style="fill:none;stroke-width:1;stroke:rgb(0,0,0)" transform="translate(0,-16)" />
<rect x="930" y="350" width="33" height="10" style="fill:none;stroke-width:1;stroke:rgb(0,0,0)" transform="translate(0,-10)" />
<rect x="985" y="350" width="33" height="12" style="fill:none;stroke-width:1;stroke:rgb(0,0,0)" transform="translate(0,-12)" />
<rect x="1040" y="350" width="33" height="15" style="fill:none;stroke-width:1;stroke:rgb(0,0,0)" transform="translate(0,-15)" />
<line x1="850" y1="350" x2="30" y2="350" fill="none" shape-rendering="crispEdges" stroke="#ccc" stroke-dasharray="5,2" stroke-width="1"> </line>
<line x1="30" y1="20" x2="30" y2="350" fill="none" shape-rendering="crispEdges" stroke="#ccc" stroke-dasharray="5,2" stroke-width="1" marker-start="url(#arrow)" marker-end="url(#arrow)"/>
<text id="légende-abcisse " x="51" y="360" font-size="8" text-anchor="center">2001</text>
<text id="légende-abcisse " x="106" y="360" font-size="8" text-anchor="center">2003</text>
<text id="légende-abcisse " x="161" y="360" font-size="8" text-anchor="center">2007</text>
<text id="légende-abcisse " x="216" y="360" font-size="8" text-anchor="center">1991</text>
<text id="légende-abcisse " x="271" y="360" font-size="8" text-anchor="center">1992</text>
<text id="légende-abcisse " x="326" y="360" font-size="8" text-anchor="center">1993</text>
<text id="légende-abcisse " x="381" y="360" font-size="8" text-anchor="center">1994</text>
<text id="légende-abcisse " x="436" y="360" font-size="8" text-anchor="center">1995</text>
<text id="légende-abcisse " x="491" y="360" font-size="8" text-anchor="center">1996</text>
<text id="légende-abcisse " x="546" y="360" font-size="8" text-anchor="center">1997</text>
<text id="légende-abcisse " x="601" y="360" font-size="8" text-anchor="center">2001</text>
<text id="légende-abcisse " x="656" y="360" font-size="8" text-anchor="center">2003</text>
<text id="légende-abcisse " x="711" y="360" font-size="8" text-anchor="center">2007</text>
<text id="légende-abcisse " x="766" y="360" font-size="8" text-anchor="center">1991</text>
<text id="légende-abcisse " x="821" y="360" font-size="8" text-anchor="center">1992</text>
<text id="légende-abcisse " x="876" y="360" font-size="8" text-anchor="center">1993</text>
<text id="légende-abcisse " x="931" y="360" font-size="8" text-anchor="center">1994</text>
<text id="légende-abcisse " x="986" y="360" font-size="8" text-anchor="center">1995</text>
<text id="légende-abcisse " x="1041" y="360" font-size="8" text-anchor="center">1996</text>
</svg>
