<svg xmlns="http://www.w3.org/2000/svg" version="1.1" width="800" height="400"><rect x="50" y="350" width="43" height="312" style="fill:rgb(200,50,100);stroke-width:1;stroke:rgb(0,0,0)" transform="translate(0,-312)" />
<rect x="105" y="350" width="43" height="182" style="fill:rgb(200,50,100);stroke-width:1;stroke:rgb(0,0,0)" transform="translate(0,-182)" />
<rect x="160" y="350" width="43" height="52" style="fill:rgb(200,50,100);stroke-width:1;stroke:rgb(0,0,0)" transform="translate(0,-52)" />
<rect x="215" y="350" width="43" height="286" style="fill:rgb(200,50,100);stroke-width:1;stroke:rgb(0,0,0)" transform="translate(0,-286)" />
<rect x="270" y="350" width="43" height="130" style="fill:rgb(200,50,100);stroke-width:1;stroke:rgb(0,0,0)" transform="translate(0,-130)" />
<rect x="325" y="350" width="43" height="104" style="fill:rgb(200,50,100);stroke-width:1;stroke:rgb(0,0,0)" transform="translate(0,-104)" />
<rect x="380" y="350" width="43" height="52" style="fill:rgb(200,50,100);stroke-width:1;stroke:rgb(0,0,0)" transform="translate(0,-52)" />
<rect x="435" y="350" width="43" height="104" style="fill:rgb(200,50,100);stroke-width:1;stroke:rgb(0,0,0)" transform="translate(0,-104)" />
<rect x="490" y="350" width="43" height="130" style="fill:rgb(200,50,100);stroke-width:1;stroke:rgb(0,0,0)" transform="translate(0,-130)" />
<rect x="545" y="350" width="43" height="338" style="fill:rgb(200,50,100);stroke-width:1;stroke:rgb(0,0,0)" transform="translate(0,-338)" />
<rect x="600" y="350" width="43" height="208" style="fill:rgb(200,50,100);stroke-width:1;stroke:rgb(0,0,0)" transform="translate(0,-208)" />
<rect x="655" y="350" width="43" height="78" style="fill:rgb(200,50,100);stroke-width:1;stroke:rgb(0,0,0)" transform="translate(0,-78)" />
<rect x="710" y="350" width="43" height="104" style="fill:rgb(200,50,100);stroke-width:1;stroke:rgb(0,0,0)" transform="translate(0,-104)" />
<rect x="765" y="350" width="43" height="260" style="fill:rgb(200,50,100);stroke-width:1;stroke:rgb(0,0,0)" transform="translate(0,-260)" />
<rect x="820" y="350" width="43" height="182" style="fill:rgb(200,50,100);stroke-width:1;stroke:rgb(0,0,0)" transform="translate(0,-182)" />
<line x1="850" y1="350" x2="30" y2="350" fill="none" shape-rendering="crispEdges" stroke="#ccc" stroke-dasharray="5,2" stroke-width="1"> </line>
<line x1="30" y1="20" x2="30" y2="350" fill="none" shape-rendering="crispEdges" stroke="#ccc" stroke-dasharray="5,2" stroke-width="1" marker-start="url(#arrow)" marker-end="url(#arrow)"/>
<text id="légende-abcisse " x="52" y="360" font-size="8" text-anchor="center">Antoine</text>
<text id="légende-abcisse " x="107" y="360" font-size="8" text-anchor="center">Charles</text>
<text id="légende-abcisse " x="162" y="360" font-size="8" text-anchor="center">Clara</text>
<text id="légende-abcisse " x="217" y="360" font-size="8" text-anchor="center">Damien</text>
<text id="légende-abcisse " x="272" y="360" font-size="8" text-anchor="center">Éléonore</text>
<text id="légende-abcisse " x="327" y="360" font-size="8" text-anchor="center">Flora</text>
<text id="légende-abcisse " x="382" y="360" font-size="8" text-anchor="center">Gaspard</text>
<text id="légende-abcisse " x="437" y="360" font-size="8" text-anchor="center">Héloïse</text>
<text id="légende-abcisse " x="492" y="360" font-size="8" text-anchor="center">Iliès</text>
<text id="légende-abcisse " x="547" y="360" font-size="8" text-anchor="center">Juliette</text>
<text id="légende-abcisse " x="602" y="360" font-size="8" text-anchor="center">Karim</text>
<text id="légende-abcisse " x="657" y="360" font-size="8" text-anchor="center">Loréna</text>
<text id="légende-abcisse " x="712" y="360" font-size="8" text-anchor="center">Maud</text>
<text id="légende-abcisse " x="767" y="360" font-size="8" text-anchor="center">Maëlle</text>
<text id="légende-abcisse " x="822" y="360" font-size="8" text-anchor="center">Nathan</text>
</svg>
