<svg xmlns="http://www.w3.org/2000/svg" version="1.1" width="800" height="400"><polyline points="
40,280 85,240 130,389 175,388 220,383 265,384 310,390 355,388 400,385 445,-160 490,280 535,240 580,368 625,388 670,383 715,384 760,390 805,388 850,385 895,-162 " fill="none" stroke="red" stroke-width="1" marker-start="url(#dot)" marker-mid="url(#dot)" marker-end="url(#dot)" />
<line x1="850" y1="350" x2="30" y2="350" fill="none" shape-rendering="crispEdges" stroke="#ccc" stroke-dasharray="5,2" stroke-width="1"> </line>
<line x1="30" y1="20" x2="30" y2="350" fill="none" shape-rendering="crispEdges" stroke="#ccc" stroke-dasharray="5,2" stroke-width="1" marker-start="url(#arrow)" marker-end="url(#arrow)"/>
<text id="légende-abcisse " x="42" y="360" font-size="8" text-anchor="center">2001</text>
<text id="légende-abcisse " x="87" y="360" font-size="8" text-anchor="center">2003</text>
<text id="légende-abcisse " x="132" y="360" font-size="8" text-anchor="center">2007</text>
<text id="légende-abcisse " x="177" y="360" font-size="8" text-anchor="center">1991</text>
<text id="légende-abcisse " x="222" y="360" font-size="8" text-anchor="center">1992</text>
<text id="légende-abcisse " x="267" y="360" font-size="8" text-anchor="center">1993</text>
<text id="légende-abcisse " x="312" y="360" font-size="8" text-anchor="center">1994</text>
<text id="légende-abcisse " x="357" y="360" font-size="8" text-anchor="center">1995</text>
<text id="légende-abcisse " x="402" y="360" font-size="8" text-anchor="center">1996</text>
<text id="légende-abcisse " x="447" y="360" font-size="8" text-anchor="center">1997</text>
<text id="légende-abcisse " x="492" y="360" font-size="8" text-anchor="center">2001</text>
<text id="légende-abcisse " x="537" y="360" font-size="8" text-anchor="center">2003</text>
<text id="légende-abcisse " x="582" y="360" font-size="8" text-anchor="center">2007</text>
<text id="légende-abcisse " x="627" y="360" font-size="8" text-anchor="center">1991</text>
<text id="légende-abcisse " x="672" y="360" font-size="8" text-anchor="center">1992</text>
<text id="légende-abcisse " x="717" y="360" font-size="8" text-anchor="center">1993</text>
<text id="légende-abcisse " x="762" y="360" font-size="8" text-anchor="center">1994</text>
<text id="légende-abcisse " x="807" y="360" font-size="8" text-anchor="center">1995</text>
<text id="légende-abcisse " x="852" y="360" font-size="8" text-anchor="center">1996</text>
<rect x="655" y="12" width="20" height="10" style="fill:rgb(200,50,100);stroke-width:1;stroke:rgb(0,0,0)">  </rect>
<text id="légende du graphique" x="680" y="20" font-size="12">pommes</text>
</svg>
